HIERARCHY
ROOT SimulationBone
{
	OFFSET 0.000000 0.000000 0.000000
	CHANNELS 6 Xposition Yposition Zposition Zrotation Yrotation Xrotation 
	JOINT Hips
	{
		OFFSET 0.000000 0.000000 0.000000
		CHANNELS 6 Xposition Yposition Zposition Zrotation Yrotation Xrotation 
		JOINT LeftUpLeg
		{
			OFFSET 0.103457 1.857834 10.548504
			CHANNELS 3 Zrotation Yrotation Xrotation
			JOINT LeftLeg
			{
				OFFSET 43.499996 -0.000046 0.000000
				CHANNELS 3 Zrotation Yrotation Xrotation
				JOINT LeftFoot
				{
					OFFSET 42.372192 0.000027 0.000002
					CHANNELS 3 Zrotation Yrotation Xrotation
					JOINT LeftToe
					{
						OFFSET 17.299994 -0.000003 -0.000001
						CHANNELS 3 Zrotation Yrotation Xrotation
						End Site
						{
							OFFSET 0.000000 0.000000 0.000000
						}
					}
				}
			}
		}
		JOINT RightUpLeg
		{
			OFFSET 0.103456 1.857832 -10.548504
			CHANNELS 3 Zrotation Yrotation Xrotation
			JOINT RightLeg
			{
				OFFSET 43.500046 -0.000011 0.000010
				CHANNELS 3 Zrotation Yrotation Xrotation
				JOINT RightFoot
				{
					OFFSET 42.372261 -0.000034 0.000021
					CHANNELS 3 Zrotation Yrotation Xrotation
					JOINT RightToe
					{
						OFFSET 17.300011 0.000001 0.000002
						CHANNELS 3 Zrotation Yrotation Xrotation
						End Site
						{
							OFFSET 0.000000 0.000000 0.000000
						}
					}
				}
			}
		}
		JOINT Spine
		{
			OFFSET 6.901965 -2.603721 0.000001
			CHANNELS 3 Zrotation Yrotation Xrotation
			JOINT Spine1
			{
				OFFSET 12.588100 0.000000 -0.000000
				CHANNELS 3 Zrotation Yrotation Xrotation
				JOINT Spine2
				{
					OFFSET 12.343206 0.000005 0.000000
					CHANNELS 3 Zrotation Yrotation Xrotation
					JOINT Neck
					{
						OFFSET 25.832893 -0.000008 0.000000
						CHANNELS 3 Zrotation Yrotation Xrotation
						JOINT Head
						{
							OFFSET 11.766617 0.000009 0.000001
							CHANNELS 3 Zrotation Yrotation Xrotation
							End Site
							{
								OFFSET 0.000000 0.000000 0.000000
							}
						}
					}
					JOINT LeftShoulder
					{
						OFFSET 19.745899 -1.480394 6.000106
						CHANNELS 3 Zrotation Yrotation Xrotation
						JOINT LeftArm
						{
							OFFSET 11.284122 -0.000030 -0.000014
							CHANNELS 3 Zrotation Yrotation Xrotation
							JOINT LeftForeArm
							{
								OFFSET 33.000050 0.000020 0.000016
								CHANNELS 3 Zrotation Yrotation Xrotation
								JOINT LeftHand
								{
									OFFSET 25.200014 -0.000003 0.000011
									CHANNELS 3 Zrotation Yrotation Xrotation
									End Site
									{
										OFFSET 0.000000 0.000000 0.000000
									}
								}
							}
						}
					}
					JOINT RightShoulder
					{
						OFFSET 19.746094 -1.480381 -6.000073
						CHANNELS 3 Zrotation Yrotation Xrotation
						JOINT RightArm
						{
							OFFSET 11.284140 -0.000016 -0.000006
							CHANNELS 3 Zrotation Yrotation Xrotation
							JOINT RightForeArm
							{
								OFFSET 33.000088 0.000015 0.000002
								CHANNELS 3 Zrotation Yrotation Xrotation
								JOINT RightHand
								{
									OFFSET 25.199776 0.000133 0.000416
									CHANNELS 3 Zrotation Yrotation Xrotation
									End Site
									{
										OFFSET 0.000000 0.000000 0.000000
									}
								}
							}
						}
					}
				}
			}
		}
	}
}
MOTION
Frames: 11
Frame Time: 0.016667
-142.888351 0.000000 -635.075369 0.000000 50.653171 0.000000 -11.197054 76.351646 3.065645 81.701503 3.464549 -178.445831 112.094892 -6.258303 -169.115484 -70.446707 5.932296 -7.192936 85.157049 3.407067 -6.972163 21.454551 0.003093 0.000000 147.003579 2.151399 -171.851193 -81.505405 -1.924023 13.347019 102.952205 -8.514488 5.003963 21.454563 -0.003110 -0.000020 13.244012 -0.944094 1.401156 16.453700 -2.078039 2.653923 16.135752 -2.061850 2.666430 -2.992089 3.015346 -3.648045 0.901256 6.537952 -3.946338 164.019711 -73.108196 15.062683 -23.502880 53.450777 -10.374427 -86.320845 -7.094087 2.638682 4.388503 -25.853112 5.987304 125.973984 70.433809 -54.088046 -28.831754 -36.003767 -12.223767 -48.436548 23.490807 -2.297659 -2.387063 26.305501 -25.232787 
-142.429466 0.000000 -638.451641 0.000000 50.095177 0.000000 -10.090535 75.924919 3.226976 82.273598 3.330739 -178.281595 113.341719 -6.361678 -166.364745 -59.862295 6.172608 -3.493245 71.788145 -0.374761 -8.196929 21.454548 0.003090 0.000002 149.543827 3.293640 -172.951175 -83.189080 -1.417089 14.421961 103.173599 -9.242350 2.303508 21.454562 -0.003109 -0.000023 13.229694 -1.210233 1.291367 16.423501 -2.591693 2.398116 16.105358 -2.577031 2.413740 -2.176930 4.653311 -3.835082 0.129499 6.792654 -3.781790 164.262690 -73.411641 14.799555 -20.815454 52.854765 -5.837208 -85.246542 -8.476528 2.676458 6.273678 -27.507980 2.803237 130.310069 70.082124 -49.722497 -27.517066 -38.282671 -13.638185 -46.807722 24.410982 -2.311249 -1.328790 25.227488 -27.396175 
-141.959874 0.000000 -641.552400 0.000000 49.466680 0.000000 -9.303933 75.638893 3.093704 83.476829 2.681900 -178.852616 116.984283 -6.714598 -163.558237 -52.901836 5.565879 -1.599943 66.527674 -3.838779 -12.806576 21.454550 0.003091 0.000002 151.472940 4.808194 -173.122769 -85.369488 -1.747132 15.465133 103.054385 -9.938956 0.814766 21.454563 -0.003109 -0.000018 13.270284 -1.453337 1.312293 16.501208 -3.079081 2.404306 16.182924 -3.064376 2.422876 0.505842 4.958000 -3.874465 -0.789720 7.043360 -3.986087 164.450423 -73.021193 14.625167 -18.903756 52.236504 -2.538376 -83.632503 -9.908905 2.717768 4.824242 -28.232386 5.739081 131.093198 69.694913 -48.961164 -24.937242 -40.381416 -16.816453 -45.151863 24.746676 -2.276704 0.280858 25.546448 -25.120267 
-141.480322 0.000000 -644.392441 0.000000 48.770146 0.000000 -8.647178 75.334103 2.712599 85.100647 1.767900 179.930571 121.361651 -7.481998 -161.780757 -49.995734 4.747739 -0.842645 67.286943 -6.458816 -18.635286 21.454553 0.003094 0.000001 152.807226 6.473029 -172.777762 -88.090769 -2.576178 16.500906 102.848195 -10.610996 0.429702 21.454563 -0.003110 -0.000012 13.308370 -1.676156 1.423660 16.571533 -3.539008 2.593243 16.253142 -3.523162 2.614587 4.092857 4.493620 -3.788740 -1.680303 7.232374 -4.302694 165.206140 -72.516432 13.873039 -17.685140 51.939053 -0.219069 -81.802723 -11.238605 2.736400 2.036195 -27.876639 11.287940 130.086443 69.474143 -50.003430 -21.586094 -42.237330 -20.992209 -43.678946 24.679037 -2.225197 2.177085 26.015826 -20.640737 
-140.991556 0.000000 -646.986561 0.000000 48.007627 0.000000 -7.929937 74.851082 2.122521 86.939741 0.844580 178.166024 124.830176 -8.537594 -162.118297 -51.529705 4.016321 -0.426753 71.638254 -7.456675 -23.033531 21.454555 0.003096 0.000000 153.542091 8.104906 -172.344579 -91.388101 -3.566251 17.540998 102.813901 -11.252051 1.033232 21.454562 -0.003110 -0.000010 13.286945 -1.881282 1.585649 16.520652 -3.969780 2.887503 16.202180 -3.952153 2.911441 7.613002 3.818238 -3.582104 -2.363055 7.311014 -4.471941 167.167991 -72.462914 11.861702 -17.054862 52.273841 1.399262 -80.085709 -12.311159 2.731627 0.136721 -26.527672 15.745329 128.891445 69.550044 -51.210013 -18.081999 -43.881506 -25.283532 -42.594452 24.390311 -2.174727 3.950059 25.512584 -16.320749 
-140.494324 0.000000 -649.349555 0.000000 47.180837 0.000000 -7.049240 74.148372 1.406647 88.778023 0.146559 176.182460 126.334439 -9.654836 -165.146955 -57.127572 3.628175 0.334699 77.081706 -7.034404 -23.739227 21.454553 0.003097 -0.000000 153.727568 9.518787 -172.027094 -95.102248 -4.432355 18.559660 103.126774 -11.856986 2.349906 21.454559 -0.003108 -0.000015 13.180874 -2.055473 1.736331 16.300271 -4.335146 3.167273 15.981730 -4.315818 3.193414 10.342305 3.405691 -3.235997 -2.779992 7.269528 -4.333037 170.585041 -73.112041 8.328515 -16.849633 53.218496 2.487199 -78.795703 -12.985488 2.720116 0.564504 -24.762403 16.404393 128.878056 69.926754 -51.189867 -14.947376 -45.344642 -28.754930 -42.111544 24.009054 -2.132244 5.070238 23.573839 -14.147755 
-139.989373 0.000000 -651.496219 0.000000 46.291230 0.000000 -6.246203 73.656548 0.864837 90.363711 -0.188216 175.184517 126.950416 -10.629595 -169.638594 -63.108809 4.065489 1.621623 81.510814 -6.558633 -21.921687 21.454551 0.003097 0.000000 153.741478 10.452307 -171.085051 -98.320668 -5.113153 19.455572 103.617001 -12.396220 3.482332 21.454557 -0.003107 -0.000019 13.091759 -2.123956 1.723699 16.121436 -4.467423 3.136215 15.802823 -4.448274 3.163160 12.518644 3.400152 -2.918082 -3.362132 7.228033 -4.125848 172.835614 -73.671099 5.999811 -16.657777 53.484918 2.814168 -78.172511 -13.173522 2.709324 2.416086 -23.239736 13.839274 130.774146 69.986972 -49.259598 -12.075721 -46.170391 -30.486357 -42.494287 23.446342 -2.108880 5.267689 21.708901 -14.081406 
-139.477449 0.000000 -653.441350 0.000000 45.340059 0.000000 -5.740311 73.797092 0.746216 91.484276 -0.184804 176.094931 127.958645 -11.228156 -173.972273 -65.982465 5.356976 3.246958 83.534018 -6.831787 -19.548337 21.454549 0.003098 0.000001 153.895658 10.721038 -168.943398 -100.214755 -5.602180 20.112609 104.063492 -12.816953 3.679744 21.454558 -0.003107 -0.000015 13.109264 -2.036353 1.441759 16.168659 -4.254252 2.585875 15.849974 -4.238428 2.611551 14.459476 3.752030 -2.803228 -4.411741 7.328907 -4.130273 171.249354 -73.538729 7.631564 -16.292862 52.025712 2.174931 -78.268213 -12.914915 2.697018 4.431790 -22.398912 9.686118 134.348484 69.229542 -45.690324 -9.421633 -46.136334 -29.974474 -43.757772 22.684550 -2.101450 4.594157 21.408235 -15.303178 
-138.959300 0.000000 -655.199742 0.000000 44.328436 0.000000 -5.388648 74.483093 0.819080 92.137804 -0.195737 177.807767 129.592347 -11.312391 -176.609212 -66.403993 5.891044 4.341964 84.313145 -7.047786 -17.542115 21.454550 0.003101 0.000001 153.841240 10.570799 -166.706736 -101.060502 -5.756492 20.493989 104.324315 -13.077762 3.394147 21.454562 -0.003108 -0.000011 13.148929 -1.899586 1.060744 16.262783 -3.929412 1.844443 15.944057 -3.918074 1.868176 15.851122 3.922951 -2.868625 -5.230645 7.681684 -4.381161 168.967609 -73.426606 9.976067 -16.607513 50.024762 0.974107 -78.464597 -12.709099 2.689280 5.577423 -22.306652 7.247615 137.383434 68.521548 -42.656100 -7.510310 -46.385484 -28.715361 -44.890184 22.210925 -2.098572 3.961888 22.436003 -16.095575 
-138.435672 0.000000 -656.786193 0.000000 43.257386 0.000000 -5.048279 75.538270 0.814717 92.360379 -0.472338 179.062099 131.781152 -10.968351 -176.734352 -65.761003 4.468703 4.200540 85.239484 -6.477884 -16.334409 21.454552 0.003104 0.000001 153.216196 10.305363 -165.505123 -101.281710 -5.468419 20.567676 104.299016 -13.140424 3.283718 21.454563 -0.003109 -0.000015 13.111295 -1.821290 0.770115 16.197363 -3.732424 1.277824 15.878613 -3.724513 1.300383 16.443379 3.476089 -3.061689 -5.187377 8.297950 -4.817684 169.145325 -74.110970 9.767331 -18.221814 48.763213 -0.292059 -78.285541 -12.929795 2.696206 5.140877 -22.808298 9.136177 138.552104 68.823152 -41.438536 -6.662215 -47.859500 -28.348658 -45.073974 22.435238 -2.118980 4.282207 24.118846 -15.058243 
-137.907313 0.000000 -658.215498 0.000000 42.127892 0.000000 -4.862506 76.937263 0.846903 92.231021 -0.739812 -179.960612 134.218598 -10.644609 -176.434537 -64.050118 2.926065 3.610617 85.825028 -5.764078 -15.556794 21.454555 0.003100 -0.000000 152.203292 9.913185 -164.906366 -100.793176 -4.986037 20.203821 104.018193 -12.921220 3.619555 21.454562 -0.003109 -0.000021 13.004034 -1.750301 0.561721 15.989280 -3.561390 0.876109 15.670547 -3.555906 0.897644 16.869049 2.896535 -3.306976 -4.907525 8.803540 -5.266411 170.479321 -74.909495 8.371383 -19.750488 47.793906 -1.493870 -78.488701 -12.988844 2.710000 3.659296 -22.615407 13.372411 138.873112 69.561096 -41.051091 -5.927695 -49.737457 -28.810635 -45.237479 22.953109 -2.158841 5.272263 25.526798 -13.174337 
